<?xml version="1.0" encoding="UTF-8"?>
<svg id="Layer_1" data-name="Layer 1" xmlns="http://www.w3.org/2000/svg" xmlns:xlink="http://www.w3.org/1999/xlink" viewBox="0 0 492.11 531.56">
  <defs>
    <style>
      .cls-1 {
        fill: #fec603;
      }

      .cls-1, .cls-2, .cls-3, .cls-4, .cls-5, .cls-6, .cls-7, .cls-8, .cls-9, .cls-10, .cls-11, .cls-12 {
        stroke-width: 0px;
      }

      .cls-2 {
        fill: url(#linear-gradient);
      }

      .cls-3 {
        fill: url(#New_Pattern_Swatch_1);
      }

      .cls-4, .cls-13 {
        fill: none;
      }

      .cls-5 {
        fill: #fff;
      }

      .cls-6 {
        fill: #17092e;
      }

      .cls-7 {
        fill: #f46c01;
      }

      .cls-8 {
        fill: url(#linear-gradient-2);
      }

      .cls-9 {
        fill: #fca00a;
      }

      .cls-10 {
        fill: #f69a03;
      }

      .cls-11 {
        fill: #ec3f3e;
      }

      .cls-13 {
        stroke: #fff;
        stroke-linecap: round;
        stroke-miterlimit: 10;
        stroke-width: 4px;
      }

      .cls-12 {
        fill: #190a31;
      }
    </style>
    <pattern id="New_Pattern_Swatch_1" data-name="New Pattern Swatch 1" x="0" y="0" width="79.76" height="79.76" patternTransform="translate(-51.94 686.78)" patternUnits="userSpaceOnUse" viewBox="0 0 79.76 79.76">
      <g>
        <rect class="cls-4" x="0" y="0" width="79.76" height="79.76"/>
        <rect class="cls-11" x="0" y="0" width="79.76" height="79.76"/>
      </g>
    </pattern>
    <linearGradient id="linear-gradient" x1="409.52" y1="454.39" x2="409.52" y2="524.51" gradientUnits="userSpaceOnUse">
      <stop offset=".46" stop-color="#fff"/>
      <stop offset=".56" stop-color="#f9f6f3"/>
      <stop offset=".74" stop-color="#ebdfd5"/>
      <stop offset=".77" stop-color="#e9dbd0"/>
    </linearGradient>
    <linearGradient id="linear-gradient-2" x1="30.87" y1="341.43" x2="29.32" y2="420.83" gradientUnits="userSpaceOnUse">
      <stop offset=".51" stop-color="#fff"/>
      <stop offset=".84" stop-color="#fff"/>
    </linearGradient>
  </defs>
  <g>
    <path class="cls-6" d="m407.57,528.53l77.55-34.46,6.95-3.09-.3-2.9-5.86-2.5-89.38-38.02h-65.21c53.54-27.89,89.85-82.07,89.85-144.33,0-30.84-8.91-59.7-24.41-84.36,16.26-18.51-2.65-35.54-2.65-35.54l82.57-34.63c12.56-5.27,13.39-22.75,1.38-29.18L260.95,3.15c-7.99-4.29-17.62-4.19-25.53.25L33.17,117.03c-4.58-3.35-11.47.18-14.82,7.94-3.13,7.26-2.26,17.92,1.33,21.43l1.42,67.6c-11.94,3.63-20.65,14.75-20.65,27.86s9.29,24.95,21.83,28.2l.4,18.91h-6.57c-1.82,0-3.46.74-4.65,1.93s-1.93,2.84-1.93,4.66c0,3.15,2.21,5.79,5.16,6.43-3.19,4.52-9.89,14.46-10.34,18.75-.59,5.65-4.35,90.35-4.35,90.35h19.6c-.66.82-1.05,1.86-1.05,2.99,0,2.65,2.15,4.81,4.81,4.81h11.94c1.33,0,2.53-.54,3.4-1.41s1.41-2.07,1.41-3.4c0-1.13-.39-2.17-1.05-2.99h20.35l-4.78-89.34c-.03-.61-.16-1.21-.38-1.78-1.19-3.04-5.38-13.1-10.74-17.92,1.36-.24,2.57-.9,3.5-1.83,1.19-1.19,1.93-2.84,1.93-4.66,0-3.64-2.95-6.59-6.59-6.59h-5.66l-.55-18.75c12.91-2.98,22.55-14.56,22.55-28.36s-10.48-26.37-24.22-28.7l-1.76-60.36c22.97,10.44,69.82,30.94,69.82,30.94-15.53,14.43-6.87,29.83-2.27,35.93-15.19,24.48-23.91,53.05-23.91,83.56,0,62.26,36.31,116.44,89.85,144.33H46.59c-11.6,0-22.1,4.7-29.7,12.3-7.6,7.61-12.3,18.11-12.3,29.7,0,23.2,18.8,42,42,42h354.17m-207.43-102.04c-26.15-10.1-48.46-27.02-64.62-49.01-16.83-22.92-25.73-49.81-25.73-77.77,0-29.95,9.98-58.18,28.94-81.96l2.72-3.48c37.71-13.62,78.93-20.52,116.16-20.52s74.58,6.83,111.59,20.31c20.64,24.21,31.97,54.51,31.97,85.65,0,27.96-8.9,54.85-25.73,77.77-16.16,21.99-38.47,38.91-64.61,49.01h-110.69Z"/>
    <path class="cls-1" d="m12.45,241.86c0-6.47,3.61-12.11,8.92-15.02l.64,30.38c-5.66-2.8-9.56-8.63-9.56-15.36Z"/>
    <path class="cls-1" d="m46.69,241.86c0,7.25-4.53,13.46-10.91,15.95l-.95-32.24c6.87,2.22,11.86,8.68,11.86,16.29Z"/>
    <path class="cls-1" d="m364.52,457.27c7.4,0,16.65,4.62,16.65,10.32h0c0,5.71-9.09,10.33-16.51,10.33H113.74v-20.65h250.78Z"/>
    <path class="cls-6" d="m91.64,302.74c0-35.36,13.1-67.82,34.94-93.3t.01-.01c83.91-32.27,164.54-31.05,242.44-1.97.01,0,.01.01.01.01,22.89,25.77,36.66,59,36.66,95.27,0,62.78-41.28,116.46-99.61,138.12h-114.84c-58.32-21.66-99.61-75.34-99.61-138.12Z"/>
    <path class="cls-1" d="m394.36,302.74c0,27.96-8.9,54.85-25.73,77.77-16.16,21.99-38.47,38.91-64.61,49.01h-110.69c-26.15-10.1-48.46-27.02-64.62-49.01-16.83-22.92-25.73-49.81-25.73-77.77,0-29.95,9.98-58.18,28.94-81.96l2.72-3.48c37.71-13.62,78.93-20.52,116.16-20.52s74.58,6.83,111.59,20.31c20.64,24.21,31.97,54.51,31.97,85.65Z"/>
    <path class="cls-1" d="m369.23,510.28c-3.89,1.38-8.18,1.99-12.46,1.99H113.74v-22.71h252.48s14.36,1.06,15.42,7.65c0,0,.55,8.5-12.41,13.07Z"/>
    <path class="cls-13" d="m125.29,231.49s-3.76,5.24-6.76,11.41"/>
    <path class="cls-13" d="m371.84,231.49s3.76,5.24,6.76,11.41"/>
    <path class="cls-3" d="m60.88,457.27v63.35h-13.15c-17.49,0-31.67-14.18-31.67-31.67,0-8.75,3.55-16.67,9.28-22.4,5.73-5.74,13.65-9.28,22.39-9.28h13.15Z"/>
    <rect class="cls-5" x="72.53" y="457.27" width="9.41" height="63.35"/>
    <rect class="cls-5" x="91.64" y="457.27" width="9.3" height="63.35"/>
    <ellipse class="cls-12" cx="488.05" cy="490.27" rx="4.06" ry="5.53"/>
    <path class="cls-2" d="m389.64,456.3l46.71,19.97v26.35l-41.06,18-10.82-7.53s12.24-6.59,11.06-16.47-12.82-14.12-12.82-14.12c0,0,11.76-5.53,12.35-12.94s-5.41-13.26-5.41-13.26Z"/>
    <polygon class="cls-1" points="447.96 496.27 447.96 482.24 456.43 485.68 456.43 493.8 447.96 496.27"/>
    <line class="cls-13" x1="120.51" y1="503.8" x2="361.96" y2="503.8"/>
    <line class="cls-13" x1="120.51" y1="470.62" x2="366.11" y2="470.62"/>
    <circle class="cls-7" cx="178.02" cy="260.68" r="32.12"/>
    <circle class="cls-7" cx="322.35" cy="259.8" r="32.12"/>
    <path class="cls-9" d="m32.64,136.27v-9.09L231.91,14.58c8.43-4.77,18.73-4.86,27.25-.25l210.79,114.01c2,1.08,3.57,2.85,4.25,5.02.52,1.67.52,3.45-1.26,4.34L260.69,23.19c-8.6-4.64-18.97-4.55-27.49.24L32.64,136.27Z"/>
    <path class="cls-9" d="m107.05,205.8s-.47-6.12,5.06-10.47c0,0,20-12.35,61.18-21.76s100.06-8.35,136.76-2.53c36.71,5.82,72.35,20.82,76.24,24.35s3.53,9,3.53,9c0,0-46.8-24.88-102.28-28.94-55.48-4.06-125.84-1.06-180.48,30.35Z"/>
    <path class="cls-9" d="m187.76,95.56s39.65-10.94,53.18-13.53c13.53-2.59,36.35,4.47,44.35,6.76,8,2.29,24.32,6.68,26.44,9.97s1.32,5.97-4.56,4.68c-5.88-1.29-38.73-10.82-55.66-12.24s-53.99,10.47-59.28,11.65c-5.29,1.18-7.56,1.83-8.26.85s-.38-6.18,3.79-8.15Z"/>
    <path class="cls-9" d="m153.05,128.03v41.87c0,1.14-.58,2.21-1.54,2.81s-2.26,1.22-3.74,1.42-2.83-.99-2.83-2.5v-41.36s-.24-4.82,3.29-6.47,4.82,2,4.82,4.24Z"/>
    <path class="cls-9" d="m353.86,172.22c-2.3,2.78-6.93.79-7.46-2.77-.04-.24-.06-.48-.06-.71v-40.88c0-2.24,1.82-4.06,4.06-4.06h0c2.24,0,4.06,1.82,4.06,4.06v42.2c0,.59-.2,1.68-.6,2.17Z"/>
    <path class="cls-8" d="m9.27,406.04l2.72-46.5c.07-1.11.99-1.98,2.1-1.98h2.35c1.18,0,2.12.96,2.1,2.14l-.76,46.46c-.01.91-.75,1.63-1.66,1.63h-5.2c-.95,0-1.71-.8-1.66-1.76Zm35.62,1.76h1.73c1.95,0,3.49-1.65,3.35-3.6l-3.16-43.52c-.13-1.75-1.59-3.11-3.35-3.11h0c-1.9,0-3.42,1.57-3.35,3.47l1.43,43.52c.06,1.81,1.54,3.25,3.35,3.25Zm-15.54,4.65c1.66-.01,2.99-1.37,2.98-3.02l-.33-42.53c-.01-1.65-1.35-2.98-3-2.98h-.02c-1.66.01-2.99,1.37-2.98,3.02l.33,42.53c.01,1.65,1.35,2.98,3,2.98h.02Z"/>
    <path class="cls-10" d="m14.19,323.92h29.08c2.05,0,3.34-2.22,2.32-4l-11.59-20.24h-7.88l-14.1,20.03c-1.24,1.77.02,4.21,2.18,4.21Z"/>
    <path class="cls-9" d="m369.04,207.47s0,0-.01,0c-77.9-29.08-158.53-30.3-242.44,1.97t-.01.01c-21.84,25.48-34.94,57.94-34.94,93.3,0,62.78,41.29,116.46,99.61,138.12h114.84c58.33-21.66,99.61-75.34,99.61-138.12,0-36.27-13.77-69.5-36.66-95.27Zm-65.02,222.05h-110.69c-26.15-10.1-48.46-27.02-64.62-49.01-16.83-22.92-25.73-49.81-25.73-77.77,0-29.95,9.98-58.18,28.94-81.96l2.72-3.48c37.71-13.62,78.93-20.52,116.16-20.52s74.58,6.83,111.59,20.31c20.64,24.21,31.97,54.51,31.97,85.65,0,27.96-8.9,54.85-25.73,77.77-16.16,21.99-38.47,38.91-64.61,49.01Z"/>
    <path class="cls-5" d="m24.35,309.21c-.56,2.56-6.3,10.14-9.91,14.71h-.24c-2.16,0-3.43-2.44-2.18-4.21l9.85-14.01c1.43.45,2.94,1.41,2.48,3.51Z"/>
    <circle class="cls-6" cx="180.58" cy="261.56" r="32.12"/>
    <circle class="cls-6" cx="319.65" cy="261.56" r="32.12"/>
    <path class="cls-7" d="m146.56,324.28l-2.81-.31s-7.56,9.27-8.13,11.43c-.8,3.02,4.99,9.53,10.1,8.47s10.51-8.14,10.51-8.14l-9.67-11.45Z"/>
    <path class="cls-7" d="m343.53,335.31v4.95s5.82,6.69,10.68,4.13,8.82-5.38,7.5-8.12-8.24-11.34-8.24-11.34l-8.09,1.01-1.85,9.35Z"/>
    <path class="cls-6" d="m347.82,318.65c-2.38-3.18-8.29-8.91-13.68-7.24-6.32,1.97-7.15,8.65-5.38,12.35s4.59,7.85,4.59,7.85c-3.71,2.65-32.29,25.94-89.29,25.24-57-.71-80.53-26.71-80.53-26.71,0,0,5.29-6.82,4.59-11.18s-5.41-8.94-9.41-8.47-12.35,10.35-16.59,15.41-5.29,8-2.71,11.18c0,0,4.88,6.35,8.47,5.65,3.59-.71,3.71-3.47,5.71-2.29s13.35,15.47,45.94,23.82c32.59,8.35,63.76,6.18,86.88,2.65s47.29-16.43,57.09-26.66c0,0,4.65,3.8,8.28,2.13,3.63-1.68,8.22-5.47,7.52-9.35s-11.47-14.38-11.47-14.38Z"/>
  </g>
  <polygon class="cls-1" points="191.99 124.33 197.65 135.79 210.3 137.63 201.15 146.55 203.31 159.15 191.99 153.2 180.68 159.15 182.84 146.55 173.68 137.63 186.34 135.79 191.99 124.33"/>
  <polygon class="cls-1" points="300.13 124.17 305.78 135.64 318.44 137.48 309.28 146.4 311.44 159 300.13 153.05 288.81 159 290.97 146.4 281.82 137.48 294.47 135.64 300.13 124.17"/>
  <polygon class="cls-1" points="246.1 103 253.45 117.89 269.88 120.28 257.99 131.86 260.8 148.23 246.1 140.5 231.41 148.23 234.22 131.86 222.33 120.28 238.76 117.89 246.1 103"/>
</svg>